<svg viewBox="0 0 1024 1024" preserveAspectRatio="none" width="100%" height="100%" xmlns="http://www.w3.org/2000/svg" aria-hidden="true">
  <defs>
    <filter id="mapaShadow" x="-15%" y="-15%" width="130%" height="130%">
      <feDropShadow dx="0" dy="5" stdDeviation="7" flood-color="#6B5842" flood-opacity="0.22"/>
    </filter>
  </defs>
  <g fill="#D8CCB6" stroke="#A8906F" stroke-width="2" stroke-linejoin="round" stroke-linecap="round" filter="url(#mapaShadow)">
    <path transform="rotate(0.00166302 515.213 534.62)" id="svg_1" d="m751.79719,781.29906c2.18091,1.40869 4.36182,2.81744 6.68982,4.50256c-0.32886,1.13105 -0.80487,1.98566 -1.80768,3.09723c-1.93317,0.62934 -3.33954,1.00171 -5.13898,1.33271c-3.76348,-0.76441 -7.13391,-1.48737 -10.84503,-2.41211c-8.48651,-1.37336 -16.63226,-2.54493 -25.10174,-3.92804c-12.28528,-2.02417 -24.20545,-4.23658 -36.22577,-5.48041c-6.00391,-0.62128 -12.47913,-0.49829 -18.22748,1.11651c-8.58667,2.41211 -16.96265,5.94452 -24.99079,9.89045c-13.01568,6.39734 -25.95861,5.53723 -39.1947,1.35235c-3.28369,-1.03827 -6.66088,-1.78106 -10.22735,-2.88702c-1.41974,-0.73603 -2.60736,-1.24457 -4.06189,-1.97394c-13.06366,-6.92462 -26.31183,-12.90717 -38.52039,-20.55023c-10.61627,-6.64618 -20.83783,-14.36005 -29.84326,-23.04413c-15.18829,-14.64655 -28.66809,-31.14563 -47.05514,-42.15497c-7.24427,-4.33752 -14.87845,-8.02374 -22.52353,-12.28882c-3.36472,-2.06384 -6.48749,-3.94995 -9.72632,-5.60949c-15.62647,-8.00702 -31.39404,-8.77857 -47.41052,-1.00733c-2.65714,1.28925 -5.64634,2.1518 -8.57447,2.58051c-12.86004,1.88299 -23.64651,-2.04316 -26.4324,-16.75c-1.32565,-6.99829 -3.38889,-13.85883 -5.16522,-20.76959c-5.34073,-20.77784 -10.54636,-41.59235 -16.11643,-62.30872c-3.57852,-13.30933 -7.68847,-26.47632 -11.62942,-39.68646c-0.26392,-0.88459 -1.11399,-1.59436 -1.69141,-2.38544c-0.42001,0.13666 -0.84003,0.27332 -1.26004,0.41003c0.87695,9.18457 1.6658,18.37873 2.65451,27.55121c1.08435,10.06012 2.40372,20.09467 3.52905,30.15058c1.58649,14.17627 3.12311,28.35833 4.61741,42.54461c1.51184,14.35321 2.81603,28.72943 4.45318,43.06806c1.46738,12.85205 3.26383,25.66644 4.91647,38.94964c0.55506,7.28644 0.96936,14.13538 1.68866,20.95221c2.12336,20.12323 4.1464,40.26111 6.62976,60.34113c2.23987,18.11175 4.99646,36.16046 7.59491,54.22693c3.68589,25.62683 7.26795,51.27063 11.25031,76.85174c1.37179,8.81189 3.8099,17.45777 5.77533,26.61914c0.18933,2.41535 0.14954,4.43836 0.57236,6.35956c4.12588,18.74689 8.32907,37.47687 12.51025,56.21161c-2.37057,0 -4.74112,0 -7.55689,-0.40662c-1.51129,-5.44055 -2.56793,-10.47656 -3.64504,-15.50811c-4.27659,-19.97675 -9.0449,-39.86341 -12.71634,-59.95063c-4.51035,-24.677 -8.30967,-49.4906 -12.02561,-74.30371c-2.40744,-16.07544 -4.13113,-32.25372 -6.13299,-48.3894c-1.94156,-15.64954 -3.91227,-31.29596 -5.74793,-46.95801c-1.4881,-12.69665 -2.8378,-25.41003 -4.17062,-38.12421c-1.48835,-14.19775 -2.83762,-28.41021 -4.3411,-42.60632c-1.50305,-14.19256 -3.16977,-28.36786 -4.67639,-42.56c-1.50702,-14.19592 -2.84131,-28.41015 -4.36545,-42.60412c-2.16177,-20.13196 -4.44989,-40.25019 -6.64242,-60.37885c-1.59839,-14.67413 -3.15741,-29.35272 -4.68167,-44.03473c-1.14856,-11.06256 -2.254,-22.12988 -3.30606,-33.20199c-1.14634,-12.064 -2.61588,-24.11612 -3.20639,-36.20945c-0.76038,-15.57217 -6.10529,-31.21542 0.45117,-46.99716c9.55288,-17.21313 24.5083,-28.77545 38.4454,-39.4447c-0.36972,-3.68396 -0.47897,-6.17807 -0.9129,-8.61435c-0.30161,-1.6936 -0.54471,-3.89883 -1.67655,-4.86529c-10.56915,-9.025 -22.05691,-16.41416 -36.47989,-18.86414c-7.42916,-2.06113 -14.49356,-4.04303 -21.8132,-6.23596c-2.09356,-1.7193 -3.93188,-3.22757 -5.77026,-4.73584c0.56595,-0.81397 1.13187,-1.62793 2.29111,-2.71942c2.96688,-0.24866 5.34042,-0.21979 7.95617,0.03708c1.73566,0.70923 3.22916,1.19049 5.05921,1.82675c5.58819,1.74332 10.81015,3.43899 16.09714,4.89923c14.52066,4.01059 27.4887,10.74963 38.46197,21.21304c1.3393,1.27707 3.31748,1.9559 5.09219,2.68723c2.44361,1.00689 4.97547,1.79962 8.34427,2.99432c23.59909,-16.25796 35.58521,-27.00848 57.00815,-47.60754c2.56279,-8.89099 2.85473,-22.91705 -1.38566,-31.93768c-6.68954,-14.23083 -10.14791,-29.64946 -11.98592,-45.32953c-1.17703,-10.04133 -2.64008,-20.04913 -3.98203,-30.48617c-3.64615,-21.34445 -6.41629,-42.55089 -14.85968,-62.24436c-5.73156,-13.36849 -12.66168,-26.22312 -19.12133,-39.63351c-0.70966,-1.45792 -1.35382,-2.5899 -2.05262,-4.00224c-0.35467,-0.75485 -0.65472,-1.22935 -1.10009,-2.01674c-3.04749,-5.77085 -5.94962,-11.22881 -8.85175,-16.68676c-1.41336,-1.99256 -2.82672,-3.98512 -4.60413,-6.01076c-0.61339,-6.88769 0.66785,-5.02825 0.3357,-7.70651c-0.21408,-1.72649 0.64245,-3.58575 1.01916,-5.38551c1.52667,0.61357 3.05332,1.22715 4.92737,2.38687c1.03799,2.5903 1.72864,4.63445 2.53906,7.01276c1.79489,3.95712 3.31324,7.66269 5.17243,11.18852c7.52206,14.26506 15.43701,28.33023 22.67025,42.73861c11.02765,21.96667 15.62824,45.86618 19.9321,69.79582c1.4936,8.30432 2.67109,16.66548 3.99347,25.44574c1.26895,10.14287 1.98813,19.95201 3.92627,29.5141c3.4708,17.12382 11.58243,32.50586 19.74527,47.74453c2.1449,4.00418 5.21158,7.91159 8.76895,10.69553c18.56946,14.53244 37.582,28.49939 56.12549,43.06406c7.91702,6.21832 15.6532,12.88275 22.3819,20.32913c5.27344,5.83594 9.07165,13.06613 13.17145,19.88946c10.76428,17.9151 18.54767,37.11283 24.13391,57.61743c1.73718,6.75815 3.16382,13.22364 5.09906,19.53312c0.48633,1.58563 2.59881,3.80102 3.97198,3.80676c10.56305,0.04446 21.12799,-0.38443 32.13617,-0.66245c2.81067,0.00913 5.17749,0.01426 7.92707,0.04743c6.89636,1.55798 7.1834,1.93832 5.18383,7.00946c-4.77527,0.38333 -9.14856,0.67932 -13.99267,0.9704c-9.29755,-0.00183 -18.12665,0.12359 -26.94983,-0.05155c-3.92523,-0.07791 -4.797,1.65296 -4.54145,5.19123c0.76496,10.59115 1.61243,21.19241 1.82178,31.80166c0.12787,6.47894 1.16571,11.3357 6.29425,16.6106c12.23438,12.58355 22.91504,26.67334 34.33759,40.05719c1.18908,1.39331 3.13141,2.98022 4.74798,3.00628c3.94458,0.06354 7.94202,-0.52239 11.8479,-1.23278c8.36823,-1.5221 8.35004,-1.62201 10.16388,-10.56641c4.08637,-3.68127 7.89551,-7.16833 12.14325,-10.67792c2.49018,-0.09649 4.54175,-0.17041 6.95801,-0.23254c1.09027,0.0694 1.8158,0.12695 2.54138,0.18451c0.03534,0.41412 0.07074,0.82831 -0.02838,1.81305c-0.72095,1.4068 -1.30737,2.24298 -2.16772,3.21252c-1.09674,0.70655 -1.91956,1.27973 -3.05207,2.00031c-6.11444,2.8764 -10.60931,6.60522 -11.47284,13.54956c-0.51055,4.10602 -3.42437,6.24127 -7.58502,7.42303c-4.49084,0.67633 -8.57074,1.52973 -12.69153,1.84131c-6.07122,0.45905 -7.01043,1.11078 -6.88909,7.08075c0.24322,11.96948 0.68267,23.93482 0.95892,35.90375c0.36859,15.96661 0.65899,31.93506 0.98279,47.90271c0.33972,16.75244 0.3822,33.51904 1.18444,50.24933c0.27082,5.64642 1.64051,11.57006 3.94385,16.72546c6.24323,13.97375 13.42365,27.52704 19.79175,41.44861c11.72049,27.67594 4.24637,14.73303 4.02151,17.49615c2.12889,15.8514 -9.13552,-11.94806 -10.1545,-13.93817c-6.74409,-13.1712 -13.28467,-26.45349 -19.54712,-39.86053c-2.23133,-4.77698 -4.61298,-9.91577 -5.0091,-15.03766c-1.22949,-15.89563 -1.83996,-31.85687 -2.13983,-47.80298c-0.56659,-30.12457 -0.65076,-60.258 -1.16339,-90.38391c-0.12213,-7.17609 -1.25141,-14.26178 -6.409,-19.99884c-11.21801,-12.47827 -22.3363,-25.04627 -33.57446,-37.50629c-0.82367,-0.91321 -2.22168,-1.55395 -3.45807,-1.80761c-6.02191,-1.23566 -12.14654,-2.02155 -18.11255,-3.47007c-19.04535,-4.62408 -38.2182,-8.86187 -56.98154,-14.45712c-11.56524,-3.44876 -22.66577,-8.69278 -33.6293,-13.86365c-14.09421,-6.64743 -27.92132,-13.87921 -41.70318,-21.16269c-6.30588,-3.33258 -12.58579,-6.92053 -18.24469,-11.22461c-9.35093,-7.11209 -18.91709,-14.18927 -27.07477,-22.56469c-12.62039,-12.95713 -24.11789,-27.00678 -36.1366,-40.5532c-0.97903,-1.10345 -2.30383,-1.90014 -3.46792,-2.83941c-0.27231,0.23669 -0.54462,0.47339 -0.81693,0.71008c0.35501,1.48895 3.30736,-3.51551 3.84536,-1.25907c-2.48136,0.22732 -6.13002,-1.13963 -8.25599,-0.94487c0.37039,-2.83038 -0.39503,3.13116 -0.12147,1.04083c-0.44797,-0.13871 -0.89594,-0.27741 -1.34388,-0.41608c-5.08065,4.99057 -9.49935,10.8981 -10.17034,17.99106c-0.91617,9.68518 -0.75873,19.56875 -0.04114,29.29196c1.612,21.84408 3.81796,43.64499 5.85968,65.45624c0.58773,6.27899 1.15686,12.58496 2.2893,18.77713c0.573,3.13311 2.20215,6.13214 3.67664,9.0274c2.18326,4.28693 5.4718,8.17517 6.86035,12.67432c6.0322,19.54547 11.8262,39.17492 17.17596,58.91778c6.31168,23.29254 12.01093,46.75043 18.12037,70.09876c1.67978,6.41968 5.92587,10.08142 12.30813,9.14868c8.95758,-1.30902 17.79282,-3.67835 26.54813,-6.0769c6.92508,-1.89716 13.668,-2.24824 20.67779,-0.63239c17.98597,4.14606 33.34784,13.81158 48.92969,22.99597c14.87018,8.76483 27.90042,19.87946 39.3693,32.69763c9.13058,10.20478 18.45657,20.22919 30.08554,27.48536c13.5155,8.4334 27.16204,16.87719 41.54528,23.625c10.23621,4.80212 21.60535,7.82336 32.79389,9.79754c13.25622,2.33905 24.78106,-5.27515 36.682,-9.67248c8.44861,-3.12177 16.54084,-7.01642 26.30677,-6.05018c17.81219,2.33747 35.19201,4.66486 52.97729,7.02784c6.1319,1.01233 11.85828,1.98913 17.92981,3.11895c2.07575,0.43781 3.8064,0.7226 5.53699,1.00739m-196.60899,-280.65482c0.74042,-3.00833 0.47892,-8.18795 0.31108,-11.14471c-0.55103,-9.70706 -1.13361,-19.47681 -2.74555,-29.047c-4.64325,-27.56604 -13.65381,-53.74872 -26.96435,-78.33679c-6.88678,-12.72168 -14.16867,-25.29828 -25.89481,-34.444c-6.41275,-5.00165 -12.87662,-9.93768 -19.29245,-14.93539c-14.93402,-11.63306 -29.85245,-23.28614 -44.77823,-34.92969c-3.21566,-2.50852 -5.62393,-2.34613 -8.99078,0.69855c-8.48834,7.67596 -17.45514,14.85122 -26.54935,21.81002c-2.46948,1.88959 -2.7999,3.17832 -2.25214,6.05722c2.50605,13.17124 5.14783,26.35309 6.74088,39.65091c1.4834,12.38221 -1.94568,24.40583 -4.74173,36.40769c-2.7717,11.89734 -6.93457,24.54496 -11.80283,34.46731c-0.63204,0.76304 -0.63653,2.64994 -0.11917,3.54325c0.33054,0.57077 0.53068,1.93804 1.66996,2.13335c1.49204,0.25577 1.27084,1.55039 3.061,2.61894c1.36494,2.82224 2.623,0.92225 2.28954,2.31428c27.95227,23.83286 128.77424,60.62087 158.04927,58.59795c1.57303,-1.87432 1.79775,-3.50793 2.03804,-6.46603m-184.27858,-72.98014c2.57678,2.59137 9.51431,7.8936 13.73257,3.30104c0.28632,1.71176 0.06548,-0.65904 0.26134,0.51183c0.51215,0.09189 -3.24657,2.26711 -2.73442,2.359c10.2427,-17.00715 12.1781,-36.63047 15.16842,-55.65046c2.66034,-16.92114 -1.9873,-33.37667 -7.031,-50.30902c-7.56854,5.18433 -14.29697,9.71048 -20.936,14.36417c-6.63331,4.64969 -13.28226,9.2886 -19.73228,14.18527c-7.26696,5.51682 -14.3413,11.28897 -21.45144,17.00971c-2.07071,1.66604 -2.81073,3.47946 -0.6431,5.88491c14.33264,15.90555 28.58383,31.88443 43.36591,48.34354z, " fill="#D8CCB6"/>
    <path transform="rotate(42.7824 598.236 35.2538)" id="svg_3" d="m672.08137,40.23988c-11.64442,1.79802 -23.29902,3.28365 -34.92915,4.91909c-6.16782,0.86732 -12.2826,2.05429 -18.44,2.9915c-10.36554,1.57773 -20.72901,1.85619 -31.12974,0.0652c-9.04944,-1.55832 -18.17719,-2.73212 -27.2108,-4.36039c-6.64078,-1.19696 -12.90848,-2.90206 -17.81321,-8.07528c-3.37067,-3.55521 -8.20642,-5.91357 -12.71668,-9.02827c-1.86827,-1.10106 -3.40717,-1.98073 -4.94609,-2.86041c-0.70491,-1.16401 -0.95317,-2.22546 1.16745,-2.83344c2.35122,0.95876 4.27802,1.9008 6.20477,2.84284c5.52667,4.05465 10.80365,8.46494 16.68125,12.01963c3.11778,1.88558 7.21441,2.57074 10.98131,3.29591c7.28948,1.40331 14.71243,2.22168 21.98262,3.6964c13.61907,2.76258 27.15487,2.43256 40.81006,0.21865c14.79299,-2.39837 29.65511,-4.43079 44.49528,-6.5738c1.4035,-0.20267 2.86564,-0.05567 4.58173,-0.07028c0.28119,1.16798 0.28119,2.33524 0.28119,3.75263z" fill="#D8CCB6"/>
    <path id="svg_12" d="m551.10289,452.66262l-19.16185,-5.65553l-24.41526,-7.01289l-16.36342,-3.63632l-9.35053,3.89605l-7.01289,13.76605l-5.71421,13.76605l-6.49342,15.32447l7.27263,2.33763l6.23368,-15.58421l4.67526,-11.16868l4.41553,-10.38947l3.89605,-2.59737l4.67526,-1.29868l27.79184,6.23368l31.94763,10.12974l3.11684,-2.59737l-1.29868,-2.07789" fill="#D8CCB6"/>
    <path id="svg_14" d="m386.42973,126.17342l-0.98027,-8.77237l4.41553,-1.03895l3.11684,-4.41553l10.12974,-21.55816l19.48026,-15.84395l12.98684,-11.94789l9.09079,-4.935l2.85711,1.03895l-1.03895,3.63632l-9.35053,5.19474l-9.09079,8.05184l-8.05184,7.01289l-9.61026,7.53237l-5.71421,9.09079l-6.23368,13.76605l-6.23368,7.79211l-1.55842,3.37658l-0.77921,5.97395l-2." fill="#D8CCB6"/>
    <path id="svg_16" d="m608.97538,649.36561l7.12207,1.26841l23.41463,-1.46341l21.46341,-1.95122l22.92682,0.97561l17.56097,1.95122l3.90244,2.92683l-2.92683,3.41463l-21.46341,-1.95122l-18.53658,-0.97561l-14.63414,1.46341l-11.70731,0l-10.2439,0.97561l-9.26829,0.97561l-8.29268,1.46341" fill="#D8CCB6"/>
  </g>
</svg>
